<svg width="150px" height="150px" viewBox="0 0 340 320" preserveAspectRatio="xMidYMid meet" class="css-1y5supu" id="daehgcfd"><defs id="SvgjsDefs1059"></defs><g id="SvgjsG1060" featurekey="root" fill="#f0450b"></g><g id="SvgjsG1061" featurekey="container1" fill="#f1e3fc" transform="matrix(3,0,0,3,20,5)"><circle xmlns="http://www.w3.org/2000/svg" cx="50" cy="50" r="50"></circle></g><g id="SvgjsG1062" featurekey="symbol1" fill="#f0450b" transform="matrix(1.0360755920410156,0,0,1.0360755920410156,135.01036000505894,88)"><title>24b</title><path d="M53.76,12.65a4,4,0,0,0-1.94.53L27,28.88H13.9a3.54,3.54,0,0,0-3.53,3.53V67.5A3.54,3.54,0,0,0,13.9,71H27l24.87,15.7a3.59,3.59,0,0,0,5.47-3V16.18c0-1.23,0-3.53-3.53-3.53Z" transform="translate(-10.38 -12.65)"></path><path d="M72.46,33.11A3.48,3.48,0,0,0,70,34.17l-3.53,3.53a3.06,3.06,0,0,0-.88,3.17A59.26,59.26,0,0,1,66.64,52a60,60,0,0,1-.53,7.94,3.38,3.38,0,0,0,1.06,3l3.7,3.7a3.48,3.48,0,0,0,2.47,1.06c2.43,0,3.17-1.59,3.53-3A77.11,77.11,0,0,0,77.92,52a62.22,62.22,0,0,0-1.76-16,3.74,3.74,0,0,0-2.47-2.65,3.44,3.44,0,0,0-1.23-.18Z" transform="translate(-10.38 -12.65)"></path></g><g id="SvgjsG1063" featurekey="text1" fill="#f0450b" transform="matrix(1.898157000541687,0,0,1.898157000541687,69.05092193067253,176.28417220014035)"><path d="M6.2 16.12 c-0.4 -0.84 -1.06 -1.36 -2.02 -1.36 c-1 0 -1.68 0.6 -1.68 1.4 c0 0.72 0.38 1.24 1.42 1.62 l1.04 0.36 c1.74 0.62 3.02 1.26 3.02 3.08 c0 1.98 -1.92 3 -3.7 3 c-1.8 0 -3.4 -1.04 -3.78 -2.78 l1.32 -0.4 c0.32 1.14 1.26 1.84 2.46 1.84 c1.04 0 2.08 -0.6 2.08 -1.64 c0 -0.9 -0.62 -1.38 -1.7 -1.76 l-1.16 -0.42 c-1.82 -0.64 -2.6 -1.66 -2.6 -2.9 c0 -1.62 1.44 -2.74 3.24 -2.74 c1.68 0 2.86 0.92 3.42 2.3 z M14.6 13.42 c2.36 0 5.34 1.8 5.34 5.4 s-2.98 5.38 -5.34 5.38 s-5.32 -1.78 -5.32 -5.38 s2.96 -5.4 5.32 -5.4 z M14.6 14.88 c-1.68 0 -3.72 1.3 -3.72 3.94 c0 2.62 2.04 3.92 3.72 3.92 c1.7 0 3.74 -1.3 3.74 -3.92 c0 -2.64 -2.04 -3.94 -3.74 -3.94 z M34.22 13.44 c1.88 0 3.86 1.18 3.86 4.5 l0 6.06 l-1.62 0 l0 -6.1 c0 -2.04 -1.08 -3.02 -2.64 -3.02 c-1.76 0 -2.8 1.46 -3.08 2.94 l0 6.18 l-1.62 0 l0 -6.1 c0 -2.04 -1.26 -3.02 -2.66 -3.02 c-1.86 0 -2.82 1.58 -3.04 2.94 l0 6.18 l-1.64 0 l0 -10.4 l1.64 0 l0 2.44 c0.1 -0.74 1.12 -2.6 3.36 -2.6 c1.38 0 3.02 0.78 3.66 2.62 c0.36 -1.08 1.62 -2.62 3.78 -2.62 z M45 13.42 c2.36 0 5.52 1.8 5.1 5.98 l-8.78 0 c0.26 2.28 2.04 3.4 3.92 3.4 c1.44 0 2.36 -0.4 3.14 -1.16 l0.96 0.88 c-0.94 1.12 -2.3 1.68 -4.12 1.68 c-2.68 0 -5.54 -1.8 -5.54 -5.38 c0 -3.6 2.96 -5.4 5.32 -5.4 z M45 14.84 c-1.54 0 -3.38 1.1 -3.68 3.34 l7.34 0 c-0.2 -2.24 -2.1 -3.34 -3.66 -3.34 z M52.52 24.1 c-0.66 0 -0.98 -0.32 -0.98 -0.98 s0.32 -0.98 0.98 -0.98 s0.98 0.32 0.98 0.98 s-0.32 0.98 -0.98 0.98 z M60.120000000000005 13.42 c1.84 0 3.26 1.02 3.74 2.14 l0 -1.96 l1.64 0 l0 10.4 l-1.64 0 l0 -2 c-0.48 1.2 -1.9 2.2 -3.74 2.2 c-2.36 0 -5.22 -1.78 -5.22 -5.4 c0 -3.58 2.86 -5.38 5.22 -5.38 z M60.300000000000004 14.88 c-1.76 0 -3.8 1.3 -3.8 3.92 c0 2.64 2.04 3.94 3.8 3.94 c1.78 0 3.64 -1.26 3.64 -3.94 c0 -2.66 -1.86 -3.92 -3.64 -3.92 z M71.52 24.16 c-2.02 0 -3.98 -1.3 -3.98 -4.52 l0 -6.04 l1.64 0 l0 6 c0 2.18 1.14 3.12 2.68 3.12 c1.86 0 3.14 -1.72 3.4 -2.98 l0 -6.14 l1.64 0 l0 10.4 l-1.64 0 l0 -2.42 c-0.2 0.72 -1.46 2.58 -3.74 2.58 z M87.7 9.86 l1.64 0 l0 6.18 l0 7.96 l-1.64 0 l0 -2 c-0.48 1.2 -1.9 2.2 -3.74 2.2 c-2.36 0 -5.22 -1.78 -5.22 -5.4 c0 -3.58 2.86 -5.38 5.22 -5.38 c1.84 0 3.26 1.02 3.74 2.14 l0 -5.7 z M84.14 22.74 c1.78 0 3.64 -1.26 3.64 -3.94 c0 -2.66 -1.86 -3.92 -3.64 -3.92 c-1.76 0 -3.8 1.3 -3.8 3.92 c0 2.64 2.04 3.94 3.8 3.94 z M93.26 9.86 l0 1.46 l-1.64 0 l0 -1.46 l1.64 0 z M93.26 13.6 l0 10.4 l-1.64 0 l0 -10.4 l1.64 0 z M100.42 13.42 c2.36 0 5.34 1.8 5.34 5.4 s-2.98 5.38 -5.34 5.38 s-5.32 -1.78 -5.32 -5.38 s2.96 -5.4 5.32 -5.4 z M100.42 14.88 c-1.68 0 -3.72 1.3 -3.72 3.94 c0 2.62 2.04 3.92 3.72 3.92 c1.7 0 3.74 -1.3 3.74 -3.92 c0 -2.64 -2.04 -3.94 -3.74 -3.94 z"></path></g></svg>